<?xml version="1.0" encoding="UTF-8"?>
<svg width="511.99pt" height="511.99pt" viewBox="0 0 511.99 511.99" xmlns="http://www.w3.org/2000/svg">
    <path d="m415.4 495.42-159.41-159.41-159.41 159.41c-22.098 22.094-57.922 22.094-80.02 0-22.094-22.098-22.094-57.922 0-80.02l159.41-159.41-159.41-159.41c-22.094-22.098-22.094-57.922 0-80.02 22.098-22.094 57.922-22.094 80.02 0l159.41 159.41 159.41-159.41c22.098-22.094 57.922-22.094 80.02 0 22.094 22.098 22.094 57.922 0 80.02l-159.41 159.41 159.41 159.41c22.094 22.098 22.094 57.922 0 80.02-22.098 22.094-57.922 22.094-80.02 0z"
          fill="#e76e54"/>
</svg>
